<svg width="202" height="31" viewBox="0 0 202 31" fill="none" xmlns="http://www.w3.org/2000/svg">
<g clip-path="url(#clip0_152_2228)">
<mask id="mask0_152_2228" style="mask-type:luminance" maskUnits="userSpaceOnUse" x="3" y="11" width="10" height="16">
<path d="M10.5776 15.3791L9.49707 14.757L8.68953 14.2847L7.79099 13.7548L5.86881 12.6258L5.11813 12.1881L4.16273 11.6351L3.37793 11.1743V21.5537L4.25372 22.0606L5.11813 22.5675L6.1759 23.1896L7.88198 24.1803L9.72455 25.2631L10.5776 25.7585L11.4193 26.2538L12.3064 26.7722V20.6437L11.4193 20.1253L10.5776 19.6299L9.49707 18.9963L7.79099 18.0056V19.987L9.72455 21.116L10.5776 21.6228V23.7655L9.58806 23.1896L7.88198 22.1988L5.9598 21.0699L5.11813 20.5745V14.181L6.08491 14.757L7.79099 15.7477L7.83649 15.7707L9.72455 16.8767L10.5776 17.372L11.4193 17.8674L12.3064 18.3858V16.4043L11.4193 15.8744L10.5776 15.3791Z" fill="white"/>
</mask>
<g mask="url(#mask0_152_2228)">
<path d="M12.3064 11.1743H3.37793V26.7722H12.3064V11.1743Z" fill="url(#paint0_linear_152_2228)"/>
</g>
<mask id="mask1_152_2228" style="mask-type:luminance" maskUnits="userSpaceOnUse" x="4" y="4" width="19" height="11">
<path d="M12.3065 4.61949L11.4194 5.13788L10.5777 5.63324L9.49719 6.26683L7.79111 7.25754L5.86892 8.38649L5.11825 8.82424L4.16284 9.3772L5.11825 9.93015L6.08503 10.4946L7.79111 11.4853L9.65642 12.5682L9.72467 12.6028L10.5777 13.1327L11.4307 13.628L12.3179 14.1464L13.3529 14.757L14.206 14.2616L15.059 13.7663L14.206 13.2709L13.1255 12.6373L12.3065 12.165L11.4194 11.6466L12.3065 11.1282L13.3416 10.5177L14.1946 10.0223L15.0476 9.52696L15.9348 9.00856L16.9698 8.39801L18.6759 9.38872L20.5981 10.5177L21.3715 10.0684L22.2928 9.52696L21.3715 8.98552L20.3706 8.39801L18.6645 7.4073L16.7423 6.27835L15.9234 5.80603L15.0363 5.28764L14.1832 4.79228L13.1027 4.15869L12.3065 4.61949ZM13.2961 6.28987L13.3529 6.25531L14.206 6.75066L15.059 7.24602L14.206 7.74137L13.1255 8.37497L12.3065 8.84728L11.5104 9.3196L11.4194 9.3772L10.5777 9.87255L9.49719 10.5061L7.79111 9.51544L9.71329 8.38649L10.5663 7.89113L11.4194 7.39578L12.3065 6.87738L13.2051 6.34747L13.2961 6.28987Z" fill="white"/>
</mask>
<g mask="url(#mask1_152_2228)">
<path d="M22.3042 4.13574H4.16284V14.7456H22.3042V4.13574Z" fill="url(#paint1_linear_152_2228)"/>
</g>
<mask id="mask2_152_2228" style="mask-type:luminance" maskUnits="userSpaceOnUse" x="14" y="11" width="10" height="16">
<path d="M20.3821 12.6257L18.676 13.6279L16.7538 14.7569L15.9349 15.2292L15.0477 15.7476L14.2061 16.2429V22.6365L14.9567 22.1987L15.9349 21.6227L16.8903 21.0697L18.585 20.0675L20.5186 18.9386L21.383 18.4317V20.1942V20.5398L20.3934 21.1158L18.6874 22.1181L16.7652 23.247L15.9349 23.7193L15.0591 24.2377L14.2061 24.7331V26.8527L14.9567 26.415L15.0363 26.3689L15.9349 25.839L16.6628 25.4127L16.8675 25.2975L18.5736 24.3068L18.5964 24.2953L20.2911 23.2931L20.4958 23.1779L21.383 22.6595L22.2246 22.1641L23.1232 21.6457V20.1942V18.4317V15.2753L22.3043 15.7476L21.383 16.289L20.3821 16.8765L18.676 17.8672L16.7538 18.9962L15.9349 19.4685V17.4755L16.9813 16.8765L18.6874 15.8743L20.6095 14.7569L21.383 14.2961L22.3156 13.7546L23.1232 13.2823V11.0244L22.3156 11.4967L21.383 12.0382L20.3821 12.6257Z" fill="white"/>
</mask>
<g mask="url(#mask2_152_2228)">
<path d="M23.1232 11.0244H14.2061V26.8527H23.1232V11.0244Z" fill="url(#paint2_linear_152_2228)"/>
</g>
<mask id="mask3_152_2228" style="mask-type:luminance" maskUnits="userSpaceOnUse" x="0" y="0" width="27" height="31">
<path d="M13.2506 0L0 7.75288V23.2471L13.2506 31L26.5011 23.2471V7.75288L13.2506 0ZM24.9543 22.337L13.2506 29.1799L1.55822 22.337V8.66295L13.2619 1.82014L24.9657 8.66295V22.337H24.9543Z" fill="white"/>
</mask>
<g mask="url(#mask3_152_2228)">
<path d="M26.5011 0H0V31H26.5011V0Z" fill="url(#paint3_linear_152_2228)"/>
</g>
<path d="M44.1874 21.1619H41.2074L40.434 18.8695H36.2939L35.5091 21.1619H32.5974L36.7375 9.83789H40.0587L44.1874 21.1619ZM39.7402 16.7959L38.364 12.7409L36.9877 16.7959H39.7402Z" fill="#353535"/>
<path d="M53.0931 21.1619H45.0291V9.83789H47.9066V18.9732H53.0931V21.1619Z" fill="#353535"/>
<path d="M63.2842 13.4091C63.2842 13.9159 63.1932 14.4113 63.0226 14.8951C62.852 15.379 62.6017 15.7821 62.2719 16.1162C61.8283 16.5655 61.3279 16.8996 60.7819 17.13C60.236 17.3604 59.5535 17.4756 58.7346 17.4756H56.9375V21.1619H54.0486V9.83789H58.8029C59.5194 9.83789 60.1109 9.89549 60.5999 10.0222C61.089 10.1489 61.5212 10.3332 61.8966 10.5867C62.3515 10.8862 62.6927 11.2664 62.9316 11.7387C63.1704 12.1995 63.2842 12.7524 63.2842 13.4091ZM60.3042 13.4782C60.3042 13.1556 60.2246 12.8907 60.054 12.6603C59.8834 12.4299 59.69 12.2686 59.4625 12.1764C59.1668 12.0497 58.8711 11.9921 58.5868 11.9806C58.3024 11.9691 57.9157 11.9575 57.4494 11.9575H56.9489V15.3444H57.7792C58.2683 15.3444 58.6778 15.3098 58.9962 15.2522C59.3147 15.1946 59.5763 15.0679 59.7924 14.8836C59.9744 14.7223 60.1109 14.5265 60.1905 14.3076C60.2701 14.0772 60.3042 13.8007 60.3042 13.4782Z" fill="#353535"/>
<path d="M74.5899 21.1619H71.7009V16.1738H67.4471V21.1619H64.5581V9.83789H67.4471V13.985H71.7009V9.83789H74.5899V21.1619Z" fill="#353535"/>
<path d="M87.01 21.1619H84.03L83.2566 18.8695H79.1165L78.3431 21.1619H75.4314L79.5601 9.83789H82.8813L87.01 21.1619ZM82.5628 16.7959L81.1866 12.7409L79.8103 16.7959H82.5628Z" fill="#353535"/>
<path d="M102.228 20.5167C101.728 20.7125 101.068 20.9084 100.238 21.1042C99.4074 21.3001 98.5885 21.3922 97.7696 21.3922C95.8702 21.3922 94.3802 20.8738 93.2997 19.8255C92.2191 18.7772 91.6846 17.3372 91.6846 15.4825C91.6846 13.72 92.2305 12.303 93.311 11.2317C94.4029 10.1488 95.9157 9.6189 97.8606 9.6189C98.5999 9.6189 99.2937 9.68802 99.9648 9.82625C100.636 9.96449 101.375 10.2295 102.183 10.6326V13.2822H101.864C101.728 13.1785 101.523 13.0288 101.25 12.8329C100.977 12.6371 100.715 12.4758 100.465 12.3376C100.169 12.1763 99.8396 12.0381 99.4529 11.9229C99.0662 11.8077 98.6568 11.7501 98.2132 11.7501C97.7014 11.7501 97.235 11.8307 96.8256 11.9805C96.4047 12.1302 96.0408 12.3606 95.7109 12.6832C95.3925 12.9827 95.1422 13.3744 94.9603 13.8467C94.7783 14.319 94.6873 14.8604 94.6873 15.471C94.6873 16.7267 95.0171 17.6828 95.6768 18.351C96.3365 19.0191 97.3033 19.3532 98.5885 19.3532C98.7023 19.3532 98.816 19.3532 98.9525 19.3417C99.089 19.3417 99.2027 19.3302 99.3164 19.3186V17.0953H97.0872V14.9526H102.251V20.5167H102.228Z" fill="#353535"/>
<path d="M112.135 21.1619H104.037V9.83789H112.135V12.0267H106.914V13.985H111.759V16.1738H106.914V18.9732H112.135V21.1619Z" fill="#353535"/>
<path d="M121.871 21.1619H113.784V9.83789H121.871V12.0267H116.65V13.985H121.496V16.1738H116.65V18.9732H121.871V21.1619Z" fill="#353535"/>
<path d="M133.961 21.1619H130.413L127.069 16.6346L126.398 17.4641V21.1619H123.52V9.83789H126.398V14.9642L130.401 9.83789H133.745L129.366 15.0794L133.961 21.1619Z" fill="#353535"/>
<path d="M148.054 17.6023C148.054 18.7198 147.587 19.6298 146.655 20.321C145.722 21.0237 144.448 21.3693 142.856 21.3693C141.934 21.3693 141.127 21.2887 140.433 21.1274C139.739 20.9661 139.102 20.7588 138.5 20.5053V17.7866H138.818C139.409 18.2705 140.08 18.6391 140.82 18.8926C141.559 19.146 142.264 19.2842 142.947 19.2842C143.117 19.2842 143.356 19.2727 143.641 19.2382C143.925 19.2036 144.164 19.1575 144.334 19.0884C144.55 18.9962 144.732 18.881 144.88 18.7428C145.028 18.6046 145.096 18.4087 145.096 18.1322C145.096 17.8788 144.994 17.6714 144.789 17.4871C144.585 17.3028 144.277 17.1646 143.879 17.0724C143.459 16.9687 143.015 16.8766 142.549 16.7844C142.082 16.6923 141.639 16.5771 141.229 16.4503C140.285 16.1393 139.614 15.7246 139.193 15.1947C138.784 14.6648 138.579 14.0081 138.579 13.2248C138.579 12.1649 139.045 11.3125 139.978 10.6443C140.911 9.97617 142.116 9.64209 143.584 9.64209C144.323 9.64209 145.051 9.71121 145.767 9.86097C146.484 10.0107 147.11 10.1835 147.633 10.4024V13.0174H147.326C146.871 12.6488 146.325 12.3493 145.665 12.0958C145.017 11.8539 144.346 11.7272 143.663 11.7272C143.424 11.7272 143.186 11.7387 142.947 11.7733C142.708 11.8078 142.48 11.8654 142.264 11.9576C142.071 12.0382 141.9 12.1534 141.764 12.3032C141.627 12.4529 141.559 12.6373 141.559 12.8331C141.559 13.1326 141.673 13.363 141.9 13.5243C142.128 13.6856 142.549 13.8353 143.174 13.962C143.584 14.0427 143.982 14.1348 144.357 14.2155C144.732 14.2961 145.142 14.4113 145.574 14.5496C146.427 14.8376 147.064 15.2177 147.474 15.7131C147.849 16.1854 148.054 16.819 148.054 17.6023Z" fill="#353535"/>
<path d="M158.483 13.4091C158.483 13.9159 158.392 14.4113 158.222 14.8951C158.051 15.379 157.801 15.7821 157.471 16.1162C157.028 16.5655 156.527 16.8996 155.981 17.13C155.435 17.3604 154.753 17.4756 153.934 17.4756H152.137V21.1619H149.248V9.83789H153.991C154.707 9.83789 155.299 9.89549 155.788 10.0222C156.277 10.1489 156.709 10.3332 157.084 10.5867C157.539 10.8862 157.881 11.2664 158.119 11.7387C158.37 12.1995 158.483 12.7524 158.483 13.4091ZM155.503 13.4782C155.503 13.1556 155.412 12.8907 155.253 12.6603C155.083 12.4299 154.889 12.2686 154.662 12.1764C154.366 12.0497 154.07 11.9921 153.786 11.9806C153.502 11.9691 153.115 11.9575 152.649 11.9575H152.148V15.3444H152.978C153.468 15.3444 153.877 15.3098 154.195 15.2522C154.514 15.1946 154.776 15.0679 154.992 14.8836C155.174 14.7223 155.31 14.5265 155.39 14.3076C155.469 14.0772 155.503 13.8007 155.503 13.4782Z" fill="#353535"/>
<path d="M170.642 15.5056C170.642 17.3143 170.13 18.7427 169.107 19.8026C168.083 20.8624 166.673 21.3923 164.876 21.3923C163.079 21.3923 161.668 20.8624 160.645 19.8026C159.621 18.7427 159.109 17.3027 159.109 15.5056C159.109 13.6855 159.621 12.2455 160.645 11.1857C161.668 10.1259 163.079 9.59595 164.876 9.59595C166.673 9.59595 168.083 10.1259 169.107 11.1857C170.119 12.2455 170.642 13.6855 170.642 15.5056ZM166.809 18.3741C167.094 18.0285 167.298 17.6253 167.435 17.153C167.571 16.6807 167.64 16.1277 167.64 15.4941C167.64 14.8145 167.56 14.2385 167.412 13.7546C167.253 13.2823 167.059 12.8906 166.809 12.6026C166.559 12.3031 166.263 12.0727 165.922 11.946C165.592 11.8078 165.24 11.7386 164.887 11.7386C164.523 11.7386 164.182 11.8078 163.852 11.9345C163.534 12.0612 163.238 12.2801 162.965 12.5911C162.715 12.8791 162.51 13.2708 162.351 13.7661C162.191 14.2615 162.112 14.849 162.112 15.5056C162.112 16.1853 162.191 16.7498 162.339 17.2336C162.487 17.7059 162.692 18.0976 162.942 18.3971C163.192 18.6967 163.488 18.9155 163.818 19.0538C164.148 19.192 164.512 19.2611 164.876 19.2611C165.251 19.2611 165.604 19.192 165.933 19.0422C166.275 18.904 166.559 18.6736 166.809 18.3741Z" fill="#353535"/>
<path d="M182.835 21.1619H179.309L176.272 17.0033H174.941V21.1619H172.075V9.83789H176.909C177.569 9.83789 178.137 9.87245 178.615 9.95309C179.093 10.0337 179.536 10.195 179.957 10.4484C180.378 10.7019 180.708 11.036 180.958 11.4276C181.208 11.8308 181.334 12.3377 181.334 12.9483C181.334 13.7892 181.14 14.4689 180.753 14.9988C180.367 15.5287 179.821 15.9665 179.116 16.3121L182.835 21.1619ZM178.342 13.3054C178.342 13.0174 178.285 12.7755 178.172 12.5796C178.058 12.3723 177.853 12.2225 177.58 12.0958C177.387 12.0151 177.159 11.9691 176.898 11.946C176.636 11.923 176.329 11.923 175.988 11.923H174.941V14.9758H175.829C176.295 14.9758 176.67 14.9527 176.989 14.9066C177.296 14.8606 177.557 14.7569 177.774 14.5956C177.978 14.4343 178.115 14.2615 178.217 14.0772C178.297 13.8814 178.342 13.6279 178.342 13.3054Z" fill="#353535"/>
<path d="M192.082 12.0267H188.59V21.1619H185.701V12.0267H182.209V9.83789H192.082V12.0267Z" fill="#353535"/>
<path d="M202 17.6023C202 18.7198 201.534 19.6298 200.601 20.321C199.668 21.0237 198.394 21.3693 196.802 21.3693C195.881 21.3693 195.073 21.2887 194.379 21.1274C193.686 20.9661 193.049 20.7588 192.446 20.5053V17.7866H192.764C193.356 18.2705 194.027 18.6391 194.766 18.8926C195.505 19.146 196.211 19.2842 196.893 19.2842C197.064 19.2842 197.302 19.2727 197.587 19.2382C197.871 19.2036 198.11 19.1575 198.281 19.0884C198.497 18.9962 198.679 18.881 198.827 18.7428C198.974 18.6046 199.043 18.4087 199.043 18.1322C199.043 17.8788 198.94 17.6714 198.736 17.4871C198.531 17.3028 198.224 17.1646 197.826 17.0724C197.405 16.9687 196.961 16.8766 196.495 16.7844C196.029 16.6923 195.585 16.5771 195.176 16.4503C194.231 16.1393 193.56 15.7246 193.14 15.1947C192.73 14.6648 192.525 14.0081 192.525 13.2248C192.525 12.1649 192.992 11.3125 193.924 10.6443C194.857 9.97617 196.063 9.64209 197.53 9.64209C198.269 9.64209 198.997 9.71121 199.714 9.86097C200.43 10.0107 201.056 10.1835 201.579 10.4024V13.0174H201.272C200.817 12.6488 200.271 12.3493 199.611 12.0958C198.963 11.8539 198.292 11.7272 197.61 11.7272C197.371 11.7272 197.132 11.7387 196.893 11.7733C196.654 11.8078 196.427 11.8654 196.211 11.9576C196.017 12.0382 195.847 12.1534 195.71 12.3032C195.574 12.4529 195.505 12.6373 195.505 12.8331C195.505 13.1326 195.619 13.363 195.847 13.5243C196.074 13.6856 196.495 13.8353 197.12 13.962C197.53 14.0427 197.928 14.1348 198.303 14.2155C198.679 14.2961 199.088 14.4113 199.52 14.5496C200.373 14.8376 201.01 15.2177 201.42 15.7131C201.795 16.1854 202 16.819 202 17.6023Z" fill="#353535"/>
</g>
<defs>
<linearGradient id="paint0_linear_152_2228" x1="7.84247" y1="8.537" x2="7.84247" y2="30.3738" gradientUnits="userSpaceOnUse">
<stop stop-color="#309DCE"/>
<stop offset="1" stop-color="#7363A2"/>
</linearGradient>
<linearGradient id="paint1_linear_152_2228" x1="13.2323" y1="8.53708" x2="13.2323" y2="30.3739" gradientUnits="userSpaceOnUse">
<stop stop-color="#309DCE"/>
<stop offset="1" stop-color="#7363A2"/>
</linearGradient>
<linearGradient id="paint2_linear_152_2228" x1="18.6595" y1="8.53686" x2="18.6595" y2="30.3737" gradientUnits="userSpaceOnUse">
<stop stop-color="#309DCE"/>
<stop offset="1" stop-color="#7363A2"/>
</linearGradient>
<linearGradient id="paint3_linear_152_2228" x1="13.2467" y1="8.53697" x2="13.2467" y2="30.3738" gradientUnits="userSpaceOnUse">
<stop stop-color="#309DCE"/>
<stop offset="1" stop-color="#7363A2"/>
</linearGradient>
<clipPath id="clip0_152_2228">
<rect width="202" height="31" fill="white"/>
</clipPath>
</defs>
</svg>
